<svg width="32" height="32" viewBox="0 0 32 32" fill="none" xmlns="http://www.w3.org/2000/svg">
<path d="M0.93934 29.153C0.353553 29.7387 0.353553 30.6885 0.93934 31.2743C1.52513 31.8601 2.47487 31.8601 3.06066 31.2743L0.93934 29.153ZM31.7843 1.92935C31.7843 1.10093 31.1127 0.429352 30.2843 0.429352H16.7843C15.9558 0.429352 15.2843 1.10093 15.2843 1.92935C15.2843 2.75778 15.9558 3.42935 16.7843 3.42935H28.7843V15.4294C28.7843 16.2578 29.4558 16.9294 30.2843 16.9294C31.1127 16.9294 31.7843 16.2578 31.7843 15.4294V1.92935ZM3.06066 31.2743L31.3449 2.99001L29.2236 0.868692L0.93934 29.153L3.06066 31.2743Z" fill="black"/>
</svg>
