<svg width="25" height="25" viewBox="0 0 25 25" fill="none" xmlns="http://www.w3.org/2000/svg">
<path d="M0.93934 22.153C0.353553 22.7387 0.353553 23.6885 0.93934 24.2743C1.52513 24.8601 2.47487 24.8601 3.06066 24.2743L0.93934 22.153ZM24.7132 2.00042C24.7132 1.17199 24.0416 0.500419 23.2132 0.500419L9.7132 0.500418C8.88478 0.500418 8.2132 1.17199 8.2132 2.00042C8.2132 2.82885 8.88478 3.50042 9.7132 3.50042H21.7132V15.5004C21.7132 16.3288 22.3848 17.0004 23.2132 17.0004C24.0416 17.0004 24.7132 16.3288 24.7132 15.5004L24.7132 2.00042ZM3.06066 24.2743L24.2739 3.06108L22.1525 0.939758L0.93934 22.153L3.06066 24.2743Z" fill="black"/>
</svg>
